<?xml version="1.0" encoding="UTF-8" standalone="no"?>
<svg width="15px" height="19px" viewBox="0 0 15 19" version="1.1" xmlns="http://www.w3.org/2000/svg" xmlns:xlink="http://www.w3.org/1999/xlink">
    <!-- Generator: Sketch 41.2 (35397) - http://www.bohemiancoding.com/sketch -->
    <title>Icons / Search</title>
    <desc>Created with Sketch.</desc>
    <defs></defs>
    <g id="Pages" stroke="none" stroke-width="1" fill="none" fill-rule="evenodd">
        <g id="Homepage" transform="translate(-1121.000000, -55.000000)" fill="#474C55">
            <g id="header" transform="translate(130.000000, 30.000000)">
                <g id="searchbar" transform="translate(731.000000, 15.000000)">
                    <g id="Icons-/-Search" transform="translate(260.000000, 10.000000)">
                        <path d="M9.5,18.5 C14.4705627,18.5 18.5,14.4705627 18.5,9.5 C18.5,4.52943725 14.4705627,0.5 9.5,0.5 C4.52943725,0.5 0.5,4.52943725 0.5,9.5 C0.5,14.4705627 4.52943725,18.5 9.5,18.5 Z M9.5,15.5 C6.1862915,15.5 3.5,12.8137085 3.5,9.5 C3.5,6.1862915 6.1862915,3.5 9.5,3.5 C12.8137085,3.5 15.5,6.1862915 15.5,9.5 C15.5,12.8137085 12.8137085,15.5 9.5,15.5 Z" id="Oval"></path>
                        <rect id="Rectangle" transform="translate(16.232051, 21.062178) rotate(330.000000) translate(-16.232051, -21.062178) " x="14.2320508" y="14.0621778" width="4" height="14" rx="2"></rect>
                    </g>
                </g>
            </g>
        </g>
    </g>
</svg>